<svg xmlns="http://www.w3.org/2000/svg" viewBox="0 0 1400 520" role="img" aria-labelledby="title desc">
  <title id="title">DIY NAS line art</title>
  <desc id="desc">A simple line drawing of a person using a laptop connected to a desktop computer and storage server.</desc>
  <rect width="1400" height="520" fill="#fff"/>
  <g fill="none" stroke="#111" stroke-width="5" stroke-linecap="round" stroke-linejoin="round">
    <path d="M389 275l78-42 69-33"/>
    <path d="M386 270l-135-43 7 134 150 54 1-82z"/>
    <path d="M258 361l130-30"/>
    <path d="M274 296c7-13 18-17 21-7 4 13-9 28-19 26-9-2-8-10-2-19z"/>
    <path d="M331 373h2M348 384h2M365 390h2M381 399h2M404 383h2M420 391h2M436 398h2M315 392h2M333 401h2M351 408h2"/>
    <path d="M421 121c38-18 91-24 128-3 43 24 62 73 55 119-6 44-34 78-79 93"/>
    <path d="M492 236l102 128"/>
    <path d="M517 237l-74 34"/>
    <path d="M464 186h2M496 189h2"/>
    <path d="M515 224c20-12 36-19 51-22"/>

    <path d="M824 112h160c27 0 42 14 43 42l1 182c0 24-13 38-39 38H815c-27 0-42-13-42-38V155c0-28 15-43 51-43z"/>
    <path d="M832 162h132l4 151-127-11z"/>
    <path d="M878 375l-8 40h86l-11-40"/>
    <path d="M801 431l218 20-20 25-236-22z"/>
    <path d="M785 443h2M808 446h2M832 448h2M856 451h2M881 454h2M905 456h2M930 459h2M954 461h2M795 463h2M823 467h2M851 470h2M879 472h2M907 475h2M936 478h2"/>
    <path d="M1114 158l120-20 77 21-86 63-112-22z"/>
    <path d="M1225 222v178l86-62V159"/>
    <path d="M1113 200v185l112 15"/>
    <path d="M1148 268h48M1152 300h46"/>
    <path d="M1166 363c13 0 22 10 20 24-2 12-13 21-26 18-14-2-21-14-18-26 3-10 12-16 24-16z"/>
    <path d="M802 160c-41-39-76-72-94-67-9 3-10 12-4 20 22 23 44 44 70 67"/>
    <path d="M766 188c-57-24-95-33-107-22-7 7-1 16 12 21 34 13 67 21 100 36"/>
    <path d="M765 228c-52-6-84-6-94 6-5 7 3 16 16 18 32 4 62 3 96 10"/>
    <path d="M795 250c-34 10-58 22-58 36 0 8 9 13 23 10 24-5 43-14 65-19"/>
    <path d="M788 176c34 58 70 94 122 107"/>
    <path d="M910 283c-1 20-9 42-25 58M932 292c0 21-8 45-20 66M956 303c2 23-3 49-15 72"/>
    <path d="M1043 431c18-24 46-17 51 9 5 23-13 43-36 39-26-4-29-28-15-48z"/>
    <path d="M1011 452c44-13 47-27 32-21"/>
  </g>
</svg>
